<svg xmlns="http://www.w3.org/2000/svg" viewBox="0 0 64 64" role="img" aria-label="Bonzai">
  <defs>
    <linearGradient id="bonzaiG" x1="0" y1="0" x2="1" y2="1">
      <stop offset="0" stop-color="#70a7af"/>
      <stop offset="1" stop-color="#5d8d95"/>
    </linearGradient>
  </defs>
  <rect x="6" y="6" width="52" height="52" rx="14" fill="url(#bonzaiG)"/>
  <!-- Simple B mark to match docs nav -->
  <path
    fill="#ffffff"
    d="M26 18h12c6 0 10 3 10 8 0 3-1.6 5.2-4.3 6.4C46.8 33.7 49 36 49 40c0 6-4.7 10-12 10H26V18zm11 12c3 0 5-1.2 5-3.6 0-2.3-1.8-3.4-5-3.4h-5v7h5zm1 15c3.8 0 5.9-1.5 5.9-4.3 0-2.7-2-4.2-5.9-4.2h-6v8.5h6z"
  />
</svg>

